<svg width="27" height="19" viewBox="0 0 27 19" fill="none" xmlns="http://www.w3.org/2000/svg">
<path d="M25.9453 6.95398V3.60863C26.5591 3.39094 27 2.80475 27 2.1173C27 1.24498 26.2903 0.535278 25.418 0.535278H6.43369C4.39825 0.535278 2.74229 2.19119 2.74229 4.22667V6.33594C2.74229 7.3681 3.16859 8.30213 3.85377 8.97265H3.6914C1.65596 8.97265 0 10.6286 0 12.664V14.7734C0 16.8088 1.65596 18.4648 3.6914 18.4648H22.6757C23.548 18.4648 24.2577 17.7551 24.2577 16.8827C24.2577 16.1953 23.8168 15.6091 23.203 15.3914V12.046C23.8168 11.8284 24.2577 11.2422 24.2577 10.5547C24.2577 10.3698 24.2255 10.1924 24.167 10.0273H25.418C26.2904 10.0273 27.0001 9.31763 27.0001 8.4453C27 7.75786 26.5591 7.17167 25.9453 6.95398ZM12.7949 6.86328V5.80865H24.8906V6.86328H12.7949ZM24.8906 4.75396H5.9064V4.22667C5.9064 3.9408 6.14787 3.69933 6.43374 3.69933H24.8907V4.75396H24.8906ZM10.4219 5.80865H11.7402V8.16123L11.2952 7.96342C11.1589 7.90288 11.0032 7.90288 10.8669 7.96342L10.4219 8.16123V5.80865ZM5.9064 5.80865H9.36719V6.86328H6.43374C6.14792 6.86328 5.9064 6.62181 5.9064 6.33594V5.80865ZM3.79697 6.33594V4.22667C3.79697 2.77279 4.9798 1.58996 6.43369 1.58996H25.418C25.7087 1.58996 25.9453 1.82653 25.9453 2.1173C25.9453 2.40808 25.7087 2.64465 25.418 2.64465H6.43369C5.56136 2.64465 4.85166 3.35434 4.85166 4.22667V6.33594C4.85166 7.20827 5.56136 7.91796 6.43369 7.91796H9.36714V8.97265H6.43369C4.97986 8.97265 3.79697 7.78987 3.79697 6.33594ZM3.16406 14.2461H6.62485V15.3007H3.6914C3.40558 15.3007 3.16406 15.0592 3.16406 14.7734V14.2461ZM22.1483 15.3007H10.0526V14.2461H22.1483V15.3007H22.1483ZM7.67953 14.2461H8.99789V16.5986L8.55287 16.4008C8.41655 16.3403 8.26088 16.3403 8.12456 16.4008L7.67953 16.5986V14.2461ZM22.6757 17.4101H10.0526V16.3554H22.6756C22.9664 16.3554 23.203 16.5919 23.203 16.8827C23.203 17.1735 22.9665 17.4101 22.6757 17.4101ZM23.203 10.5547C23.203 10.8455 22.9665 11.0821 22.6757 11.0821H15.5568C15.2655 11.0821 15.0294 11.3182 15.0294 11.6094C15.0294 11.9006 15.2655 12.1368 15.5568 12.1368H22.1483V13.1914H3.16406V12.664C3.16406 12.3782 3.40558 12.1368 3.6914 12.1368H10.8107C11.1019 12.1368 11.338 11.9006 11.338 11.6094C11.338 11.3182 11.1019 11.0821 10.8107 11.0821H3.6914C2.81907 11.0821 2.10937 11.7917 2.10937 12.664V14.7734C2.10937 15.6457 2.81907 16.3554 3.6914 16.3554H6.62479V17.4101H3.6914C2.23751 17.4101 1.05469 16.2272 1.05469 14.7734V12.664C1.05469 11.2102 2.23751 10.0273 3.6914 10.0273H6.43369H22.6756C22.9665 10.0273 23.203 10.2639 23.203 10.5547ZM25.418 8.97265H12.7949V7.91796H25.418C25.7087 7.91796 25.9453 8.15453 25.9453 8.4453C25.9453 8.73608 25.7087 8.97265 25.418 8.97265Z" fill="black"/>
</svg>
